<?xml version="1.0" encoding="utf-8"?>
<!-- Generator: Adobe Illustrator 19.0.0, SVG Export Plug-In . SVG Version: 6.00 Build 0)  -->
<svg version="1.1" id="Layer_1" xmlns="http://www.w3.org/2000/svg" xmlns:xlink="http://www.w3.org/1999/xlink" x="0px" y="0px"
	 viewBox="-455 152 48 48" style="enable-background:new -455 152 48 48;" xml:space="preserve">
<style type="text/css">
	.st0{fill:#177EC3;}
</style>
<g>
	<path class="st0" d="M-412.7,165.5h-35.6c-0.3,0-0.5,0.2-0.5,0.5v1.2c0,0.3,0.2,0.5,0.5,0.5c0.3,0,0.5-0.2,0.5-0.5v-0.7h34.6v19.3
		h-0.3c-0.3,0-0.5,0.2-0.5,0.5s0.2,0.5,0.5,0.5h0.8c0.3,0,0.5-0.2,0.5-0.5V166C-412.2,165.7-412.4,165.5-412.7,165.5z"/>
	<path class="st0" d="M-409.3,162h-36.6c-0.3,0-0.5,0.2-0.5,0.5v0.8c0,0.3,0.2,0.5,0.5,0.5c0.3,0,0.5-0.2,0.5-0.5V163h35.6v19.3
		h-0.3c-0.3,0-0.5,0.2-0.5,0.5c0,0.3,0.2,0.5,0.5,0.5h0.8c0.3,0,0.5-0.2,0.5-0.5v-20.3C-408.8,162.2-409.1,162-409.3,162z"/>
	<path class="st0" d="M-416,168.9h-36.6c-0.3,0-0.5,0.2-0.5,0.5v20.3c0,0.3,0.2,0.5,0.5,0.5h36.6c0.3,0,0.5-0.2,0.5-0.5v-20.3
		C-415.5,169.2-415.7,168.9-416,168.9z M-416.5,189.3H-452v-19.3h35.6L-416.5,189.3L-416.5,189.3z"/>
	<path class="st0" d="M-447,174.7h11.3c0.3,0,0.5-0.2,0.5-0.5c0-0.3-0.2-0.5-0.5-0.5H-447c-0.3,0-0.5,0.2-0.5,0.5
		C-447.5,174.5-447.3,174.7-447,174.7z"/>
	<path class="st0" d="M-447,181.7h11.3c0.3,0,0.5-0.2,0.5-0.5c0-0.3-0.2-0.5-0.5-0.5H-447c-0.3,0-0.5,0.2-0.5,0.5
		C-447.5,181.5-447.3,181.7-447,181.7z"/>
	<path class="st0" d="M-427.4,181h7.2c0.3,0,0.5-0.2,0.5-0.5v-6.8c0-0.3-0.2-0.5-0.5-0.5h-7.2c-0.3,0-0.5,0.2-0.5,0.5v6.8
		C-427.9,180.8-427.7,181-427.4,181z M-426.9,174.2h6.2v5.8h-6.2V174.2z"/>
</g>
</svg>
