<?xml version="1.0" encoding="utf-8"?>
<!-- Generator: Adobe Illustrator 19.0.0, SVG Export Plug-In . SVG Version: 6.00 Build 0)  -->
<svg version="1.1" id="Layer_1" xmlns="http://www.w3.org/2000/svg" xmlns:xlink="http://www.w3.org/1999/xlink" x="0px" y="0px"
	 viewBox="32 -337 1024 1024" style="enable-background:new 32 -337 1024 1024;" xml:space="preserve">
<style type="text/css">
	.st0{fill:#177EC3;}
</style>
<g>
	<path class="st0" d="M741.1,12.3L608.4,208.7l-13.6-14c1.5-4.6,2.5-9.5,2.5-14.6c0-26.6-21.6-48.3-48.3-48.3
		c-4.7,0-9.1,0.9-13.4,2.1l-17.2-17.7L704.9-16.4c-1.8-0.7-3.6-1.3-5.1-2.5C656.1-52,604-69.5,549.1-69.5
		c-137.6,0-249.6,112-249.6,249.6c0,61.3,22.4,120.2,63.1,165.9c0.9,1,1.4,2.3,2,3.5l125.1-201.5l14.4,14.8
		c-2.1,5.4-3.4,11.2-3.4,17.4c0,26.6,21.7,48.3,48.3,48.3c5.7,0,11-1.2,16.1-3l14.6,15L392.2,381.3c4.8-0.4,9.7,0.6,13.9,3.5
		c42,29.4,91.5,45,143,45c137.6,0,249.6-112,249.6-249.6c0-56.5-18.4-109.9-53.3-154.2C742.2,21.8,741,17,741.1,12.3z"/>
	<path class="st0" d="M544-298.6C282.9-298.6,70.4-86.1,70.4,175c0,261.2,212.5,473.6,473.6,473.6c261.2,0,473.6-212.4,473.6-473.6
		C1017.6-86.1,805.2-298.6,544-298.6z M933,201.4h-90.7c-0.7,0-1.3-0.3-2-0.4C830.1,345.6,714.6,461.1,570,471.5
		c0.1,0.7,0.4,1.3,0.4,2v90.7c0,11.8-9.5,21.3-21.3,21.3c-11.8,0-21.3-9.5-21.3-21.3v-90.7c0-0.7,0.3-1.2,0.4-1.8
		c-0.8-0.1-1.5-0.2-2.3-0.3c-4.7-0.4-9.3-0.9-13.8-1.5c-4.1-0.5-8.1-1.2-12.1-1.8c-5.9-1-11.7-2.1-17.4-3.5
		c-5.2-1.2-10.4-2.5-15.5-4c-3.4-1-6.8-2.1-10.2-3.3c-5.4-1.8-10.7-3.7-16-5.9c-2.3-0.9-4.7-1.7-7-2.7c-7.3-3.1-14.4-6.6-21.4-10.3
		c-2.3-1.2-4.5-2.5-6.7-3.8c-5.5-3.1-10.9-6.3-16.1-9.8c-1.9-1.3-3.8-2.4-5.6-3.6c-0.8-0.5-1.6-1-2.3-1.5c-0.4-0.2-0.6-0.7-0.9-0.9
		c-6.5-4.6-13-9.4-19.1-14.6l-58.1,43.7l38.3-61.8c-3.5-3.5-6.6-7.2-9.9-10.8c-0.4-0.4-0.9-0.5-1.3-0.9c-1.3-1.5-2.5-3.1-3.8-4.6
		c-2.4-2.8-4.7-5.6-7-8.6c-3.1-3.9-6-7.9-8.9-11.9c-2.4-3.3-4.8-6.7-7-10.1c-2.3-3.5-4.3-7-6.4-10.6c-2.5-4.3-5-8.5-7.3-12.8
		c-0.8-1.4-1.4-2.9-2.2-4.5c-13.5-26.6-22.9-55.6-27.6-86.2c0-0.2,0-0.3-0.1-0.5c-1.2-7.8-2.1-15.6-2.7-23.6c-0.7,0.1-1.3,0.4-2,0.4
		h-90.7c-11.8,0-21.3-9.5-21.3-21.3c0-11.8,9.5-21.3,21.3-21.3h90.7c0.7,0,1.3,0.3,2,0.4C268,14.6,383.6-101,528.1-111.3
		c-0.1-0.7-0.4-1.3-0.4-2v-90.7c0-11.8,9.5-21.3,21.3-21.3c11.8,0,21.3,9.5,21.3,21.3v90.7c0,0.7-0.3,1.2-0.4,1.9
		c0.5,0.1,1,0.1,1.5,0.1c5.4,0.4,10.8,1,16.2,1.8c3.1,0.4,6.3,0.9,9.4,1.4c4.9,0.8,9.7,1.6,14.5,2.6c7.2,1.6,14.4,3.4,21.4,5.5
		c3.3,1,6.5,2.2,9.7,3.3c5.1,1.7,10.2,3.5,15.2,5.6c2.9,1.2,5.8,2.3,8.7,3.6c6.1,2.7,12.1,5.6,18.1,8.7c1.5,0.8,3.1,1.5,4.5,2.3
		c7.3,3.9,14.4,8.3,21.4,12.9c2.1,1.4,4,2.8,6,4.3c3,2.1,6.1,4.1,9,6.3c0.4,0.3,0.5,0.8,0.9,1c4.5,3.5,9,7,13.3,10.7l72.2-51.4
		l-49.5,73.3c5.4,5.8,10.6,11.7,15.6,17.9c0.3,0.3,0.7,0.5,0.9,0.8c3.9,4.9,7.5,10,11,15.1c0.6,0.9,1.3,1.7,1.9,2.6
		c4.7,7,9,14.2,13.1,21.5c1.3,2.4,2.5,4.8,3.7,7.2c2.7,5.2,5.3,10.5,7.6,15.9c1.3,2.9,2.6,5.9,3.8,8.8c2.1,5.2,4,10.4,5.8,15.7
		c1.1,3.3,2.3,6.5,3.3,9.8c2,6.9,3.9,13.9,5.4,21c1.1,5.1,2,10.2,2.8,15.4c0.5,2.8,0.9,5.6,1.3,8.3c0.8,5.8,1.4,11.5,1.9,17.4
		c0,0.4,0.1,0.7,0.1,1.1c0.7-0.1,1.2-0.4,1.9-0.4H933c11.8,0,21.3,9.5,21.3,21.3C954.4,191.9,944.8,201.4,933,201.4z"/>
</g>
</svg>
