<?xml version="1.0" encoding="utf-8"?>
<!-- Generator: Adobe Illustrator 19.0.0, SVG Export Plug-In . SVG Version: 6.00 Build 0)  -->
<svg version="1.1" id="Layer_1" xmlns="http://www.w3.org/2000/svg" xmlns:xlink="http://www.w3.org/1999/xlink" x="0px" y="0px"
	 viewBox="-455 152 48 48" style="enable-background:new -455 152 48 48;" xml:space="preserve">
<style type="text/css">
	.st0{fill:#384653;}
</style>
<g>
	<path class="st0" d="M-431.2,154.4c-12,0-21.7,9.7-21.7,21.7c0,12,9.7,21.7,21.7,21.7s21.7-9.7,21.7-21.7
		C-409.5,164.2-419.2,154.4-431.2,154.4z M-431.2,196.9c-11.4,0-20.7-9.3-20.7-20.7c0-11.4,9.3-20.7,20.7-20.7
		c11.4,0,20.7,9.3,20.7,20.7S-419.8,196.9-431.2,196.9z"/>
	<path class="st0" d="M-416.2,175.6h-1.8c-0.1-3-1.2-5.8-3.1-8.1l2.3-4.1c0.1-0.2,0.1-0.5-0.1-0.6c-0.2-0.2-0.4-0.2-0.6-0.1
		l-3.9,2.6c-2.1-1.5-4.6-2.4-7.2-2.5v-1.8c0-0.3-0.2-0.5-0.5-0.5s-0.5,0.2-0.5,0.5v1.8c-6.9,0.3-12.4,5.8-12.7,12.7h-1.8
		c-0.3,0-0.5,0.2-0.5,0.5s0.2,0.5,0.5,0.5h1.8c0.1,2.9,1.2,5.7,3.1,8l-2.2,4c-0.1,0.2-0.1,0.5,0.1,0.6c0.1,0.1,0.2,0.1,0.3,0.1
		c0.1,0,0.2,0,0.3-0.1l3.8-2.5c2.1,1.6,4.6,2.4,7.3,2.5v1.8c0,0.3,0.2,0.5,0.5,0.5s0.5-0.2,0.5-0.5v-1.8c6.9-0.3,12.4-5.8,12.7-12.7
		h1.8c0.3,0,0.5-0.2,0.5-0.5S-415.9,175.6-416.2,175.6z M-428.3,178.3l-0.5-0.5l-0.9-0.9c0.1-0.2,0.2-0.5,0.2-0.8
		c0-1-0.8-1.8-1.8-1.8c-0.3,0-0.5,0.1-0.8,0.2l-1.5-1.5l10.1-6.6c0,0,0,0,0,0l2.5-1.6L-428.3,178.3z M-431.9,176l0.8,0.9
		c0,0-0.1,0-0.1,0c-0.4,0-0.8-0.3-0.8-0.8C-432,176.1-431.9,176.1-431.9,176z M-431.2,175.4c0.4,0,0.7,0.3,0.7,0.7L-431.2,175.4z
		 M-443.4,176.1c0-6.7,5.5-12.2,12.2-12.2c2.4,0,4.8,0.7,6.8,2.1l-10,6.6c0,0,0,0,0,0c0,0,0,0-0.1,0.1c0,0-0.1,0.1-0.1,0.1
		c0,0,0,0,0,0l-6.1,11C-442.5,181.6-443.4,178.9-443.4,176.1z M-434.1,173.8l1.4,1.4c-0.2,0.3-0.3,0.6-0.3,0.9c0,1,0.8,1.8,1.8,1.8
		c0.3,0,0.6-0.1,0.9-0.2l1.4,1.4l-12.7,8.3L-434.1,173.8z M-431.2,188.4c-2.5,0-4.9-0.7-6.9-2.1l10.2-6.6c0,0,0,0,0,0c0,0,0,0,0,0
		c0,0,0.1-0.1,0.1-0.1c0,0,0,0,0,0l6.1-10.9c1.7,2.2,2.7,4.8,2.7,7.6C-419,182.9-424.5,188.4-431.2,188.4z"/>
</g>
</svg>
