<?xml version="1.0" encoding="utf-8"?>
<!-- Generator: Adobe Illustrator 19.0.0, SVG Export Plug-In . SVG Version: 6.00 Build 0)  -->
<svg version="1.1" id="Layer_1" xmlns="http://www.w3.org/2000/svg" xmlns:xlink="http://www.w3.org/1999/xlink" x="0px" y="0px"
	 viewBox="-455 152 48 48" style="enable-background:new -455 152 48 48;" xml:space="preserve">
<style type="text/css">
	.st0{fill:#177EC3;}
</style>
<g>
	<path class="st0" d="M-451.9,164.2h10.3v-10.3h-10.3V164.2z M-450.9,154.9h8.3v8.3h-8.3V154.9z"/>
	<path class="st0" d="M-436.2,164.2h10.3v-10.3h-10.3V164.2z M-435.2,154.9h8.3v8.3h-8.3V154.9z"/>
	<path class="st0" d="M-420.4,153.9v10.3h10.3v-10.3H-420.4z M-411.1,163.2h-8.3v-8.3h8.3V163.2z"/>
	<path class="st0" d="M-451.9,181.2h10.3v-10.3h-10.3V181.2z M-450.9,171.8h8.3v8.3h-8.3V171.8z"/>
	<path class="st0" d="M-436.2,181.2h10.3v-10.3h-10.3V181.2z M-435.2,171.8h8.3v8.3h-8.3V171.8z"/>
	<path class="st0" d="M-420.4,181.2h10.3v-10.3h-10.3V181.2z M-419.4,171.8h8.3v8.3h-8.3V171.8z"/>
	<path class="st0" d="M-451.9,198.1h10.3v-10.3h-10.3V198.1z M-450.9,188.8h8.3v8.3h-8.3V188.8z"/>
	<path class="st0" d="M-436.2,198.1h10.3v-10.3h-10.3V198.1z M-435.2,188.8h8.3v8.3h-8.3V188.8z"/>
	<path class="st0" d="M-420.4,198.1h10.3v-10.3h-10.3V198.1z M-419.4,188.8h8.3v8.3h-8.3V188.8z"/>
</g>
</svg>
