<?xml version="1.0" encoding="utf-8"?>
<!-- Generator: Adobe Illustrator 19.0.0, SVG Export Plug-In . SVG Version: 6.00 Build 0)  -->
<svg version="1.1" id="Layer_1" xmlns="http://www.w3.org/2000/svg" xmlns:xlink="http://www.w3.org/1999/xlink" x="0px" y="0px"
	 viewBox="-455 152 48 48" style="enable-background:new -455 152 48 48;" xml:space="preserve">
<style type="text/css">
	.st0{fill:#177EC3;}
</style>
<g>
	<path class="st0" d="M-411.1,165.6c0-0.3-0.2-0.5-0.5-0.5h-6.7c-0.3,0-0.5,0.2-0.5,0.5v29h-3v-25.1c0-0.3-0.2-0.5-0.5-0.5h-6.7
		c-0.3,0-0.5,0.2-0.5,0.5v25.1h-3v-21.9c0-0.3-0.2-0.5-0.5-0.5h-6.7c-0.3,0-0.5,0.2-0.5,0.5v21.9h-3v-17.5c0-0.3-0.2-0.5-0.5-0.5
		h-6.7c-0.3,0-0.5,0.2-0.5,0.5v18c0,0.3,0.2,0.5,0.5,0.5h38.7c0.3,0,0.5-0.2,0.5-0.5c0,0,0,0,0-0.1c0,0,0,0,0-0.1V165.6z
		 M-417.8,166.1h5.7v28.5h-5.7V166.1z M-428.5,170h5.7v24.6h-5.7C-428.5,194.6-428.5,170-428.5,170z M-439.2,173.2h5.7v21.4h-5.7
		C-439.2,194.6-439.2,173.2-439.2,173.2z M-444.2,177.6v17h-5.7v-17H-444.2z"/>
	<path class="st0" d="M-450.4,173.1c0.1,0,0.2,0,0.3-0.1l7.2-5.9l3.8,2.1c0.2,0.1,0.4,0.1,0.5,0l8.5-5.8l6.3,2.2c0.1,0,0.3,0,0.4,0
		l10.7-5.7l-0.4,3.5c0,0.3,0.2,0.5,0.4,0.6c0,0,0,0,0.1,0c0.3,0,0.5-0.2,0.5-0.4l0.5-4.5c0-0.2-0.1-0.4-0.3-0.5l-4.1-2
		c-0.2-0.1-0.5,0-0.7,0.2c-0.1,0.3,0,0.5,0.2,0.7l3.3,1.5l-10.5,5.6l-6.3-2.2c-0.1-0.1-0.3,0-0.4,0.1l-8.5,5.8l-3.9-2.1
		c-0.2-0.1-0.4-0.1-0.6,0.1l-7.5,6.1c-0.2,0.2-0.2,0.5-0.1,0.7C-450.7,173-450.5,173.1-450.4,173.1z"/>
</g>
</svg>
